<svg xmlns="http://www.w3.org/2000/svg" viewBox="0 0 487.925 487.925"><path d="M19.762 40.525c2.5 0 5.1-1 7-2.9l20.6-20.6c3.9-3.9 3.9-10.2 0-14.1-3.9-3.9-10.2-3.9-14.1 0l-20.6 20.6c-3.9 3.9-3.9 10.2 0 14.1 2 1.9 4.5 2.9 7.1 2.9zm122.2 0c2.6 0 5.1-1 7-2.9l20.6-20.6c3.9-3.9 3.9-10.2 0-14.1s-10.2-3.9-14.1 0l-20.6 20.6c-3.9 3.9-3.9 10.2 0 14.1 2 1.9 4.5 2.9 7.1 2.9zm122.2 0c2.6 0 5.2-1 7-2.9l20.6-20.6c3.9-3.9 3.9-10.2 0-14.1-3.9-3.9-10.2-3.9-14.1 0l-20.6 20.6c-3.9 3.9-3.9 10.2 0 14.1 2 1.9 4.5 2.9 7.1 2.9zm122.3 0c2.6 0 5.1-1 7-2.9l20.6-20.6c3.9-3.9 3.9-10.2 0-14.1-3.9-3.9-10.2-3.9-14.1 0l-20.6 20.6c-3.9 3.9-3.9 10.2 0 14.1 2 1.9 4.5 2.9 7.1 2.9zm-305.6 40.4c2.5 0 5-.9 6.9-2.8l20.6-19.8c4-3.8 4.1-10.1.3-14.1s-10.1-4.1-14.1-.3l-20.6 19.8c-4 3.8-4.1 10.1-.3 14.1 2 2.1 4.6 3.1 7.2 3.1zm122.2 0c2.5 0 5-.9 6.9-2.8l20.6-19.8c4-3.8 4.1-10.1.3-14.1s-10.1-4.1-14.1-.3l-20.6 19.8c-4 3.8-4.1 10.1-.3 14.1 2 2.1 4.6 3.1 7.2 3.1zm122.3 0c2.5 0 5-.9 6.9-2.8l20.6-19.8c4-3.8 4.1-10.1.3-14.1s-10.1-4.1-14.1-.3l-20.6 19.8c-4 3.8-4.1 10.1-.3 14.1 2 2.1 4.6 3.1 7.2 3.1zm122.2 0c2.5 0 5-.9 6.9-2.8l20.6-19.8c4-3.8 4.1-10.1.3-14.1s-10.1-4.1-14.1-.3l-20.6 19.8c-4 3.8-4.1 10.1-.3 14.1 2 2.1 4.6 3.1 7.2 3.1zm-400.2 3.5c-3.9-3.9-10.2-3.9-14.1 0l-20.6 20.6c-3.9 3.9-3.9 10.2 0 14.1 2 1.9 4.5 2.9 7.1 2.9 2.5 0 5.1-.9 7-2.9l20.6-20.6c3.9-3.9 3.9-10.2 0-14.1zm94.6 37.6c2.6 0 5.1-.9 7-2.9l20.6-20.6c3.9-3.9 3.9-10.2 0-14.1s-10.2-3.9-14.1 0l-20.6 20.6c-3.9 3.9-3.9 10.2 0 14.1 2 1.9 4.5 2.9 7.1 2.9zm244.5 0c2.6 0 5.1-.9 7-2.9l20.6-20.6c3.9-3.9 3.9-10.2 0-14.1-3.9-3.9-10.2-3.9-14.1 0l-20.6 20.6c-3.9 3.9-3.9 10.2 0 14.1 2 1.9 4.5 2.9 7.1 2.9zm-315.6 40.4c2.6 0 5.2-.9 7-2.9l20.6-20.6c3.9-3.9 3.9-10.2 0-14.1-3.9-3.9-10.2-3.9-14.1 0l-20.6 20.6c-3.9 3.9-3.9 10.2 0 14.1 2 1.9 4.5 2.9 7.1 2.9zm376.7 0c2.6 0 5.1-.9 7-2.9l20.6-20.6c3.9-3.9 3.9-10.2 0-14.1-3.9-3.9-10.2-3.9-14.1 0l-20.6 20.6c-3.9 3.9-3.9 10.2 0 14.1 2 1.9 4.5 2.9 7.1 2.9zm30.6 172.3c-7.7-116-100.8-207.5-213.9-212.6v-20c0-5.5-4.5-10-10-10s-10 4.5-10 10v20c-113.1 5.1-206.2 96.7-213.9 212.6-.4 5.5 3.8 10.3 9.3 10.6 5.5.4 10.3-3.8 10.6-9.3 1.9-29 28.8-51.6 61.1-51.6 32.1 0 59.3 22.8 61.9 51.9.4 4.8 4.3 8.8 9.3 9.1 5.5.4 10.3-3.8 10.6-9.3 1.7-25.9 23.4-46.8 51.1-50.9v163c0 21.5 18.6 39.7 40.6 39.7h.5c22.5-1 40.1-18.8 40.1-40.5 0-5.5-4.5-10-10-10s-10 4.5-10 10c0 10.9-9.1 19.8-20.8 20.5-11-.1-20.3-9.1-20.3-19.7v-163c27.7 4.1 49.3 25 51.1 50.9.4 5.3 4.7 9.3 10 9.3h.7c5-.3 8.9-4.3 9.3-9.1 2.6-29.1 29.8-51.9 61.9-51.9 32.3 0 59.1 22.7 61.1 51.6.4 5.3 4.7 9.3 10 9.3h.7c5.2-.3 9.4-5.1 9-10.6zm-81-70.3c-20.5 0-40.1 7.1-55.3 20-6.6 5.6-12.1 12-16.3 19.1-13.8-23.4-40.7-39.1-71.3-39.1-30.6 0-57.4 15.8-71.3 39.1-4.3-7.1-9.7-13.5-16.3-19.1-15.2-12.9-34.8-20-55.3-20-18.6 0-35.8 5.8-49.6 15.6 28.5-80.8 104.6-138.2 192.4-138.2 87.9 0 163.9 57.4 192.4 138.2-13.6-9.8-30.8-15.6-49.4-15.6z" fill="#fff"/></svg>